<svg version="1.1" id="Layer_1" xmlns="http://www.w3.org/2000/svg" xmlns:xlink="http://www.w3.org/1999/xlink" x="0px" y="0px"
	 width="100%" viewBox="0 0 500 500" enable-background="new 0 0 500 500" xml:space="preserve">

<path fill="#FDFDFD" opacity="1.000000" stroke="none" 
	d="
M260.647949,269.999207 
	C260.646484,246.005707 260.781128,222.510651 260.531250,199.019669 
	C260.480103,194.210342 262.086060,192.975143 266.562927,193.213409 
	C272.710419,193.540588 278.890076,193.375870 285.052704,193.256104 
	C288.012604,193.198593 289.137390,194.263962 289.132172,197.327011 
	C289.051392,244.647461 289.042969,291.968079 289.092926,339.288544 
	C289.095886,342.113464 288.144379,343.090546 285.327209,343.035461 
	C278.165314,342.895477 270.985291,343.235504 263.843201,342.835175 
	C262.002472,342.732025 259.730286,340.986786 258.576721,339.347961 
	C237.502869,309.408997 216.570267,279.370605 195.603745,249.356049 
	C194.677979,248.030762 193.715057,246.731445 192.091278,244.479538 
	C192.091278,265.879730 192.091278,286.217407 192.091278,306.827118 
	C182.327377,306.827118 173.067291,306.827118 163.134903,306.827118 
	C163.134903,305.284637 163.134933,303.688873 163.134903,302.093079 
	C163.134323,267.768860 163.222702,233.444168 163.028595,199.121063 
	C163.002197,194.452835 164.332535,192.920578 168.958374,193.205414 
	C174.768112,193.563141 180.628159,193.512329 186.444183,193.209412 
	C190.072968,193.020401 192.147202,194.432724 194.157608,197.323471 
	C214.871002,227.106934 235.715591,256.799194 256.530029,286.512329 
	C257.464752,287.846680 258.460602,289.138184 260.648071,290.399139 
	C260.648071,283.765808 260.648071,277.132446 260.647949,269.999207 
z"/>
<path fill="#FEFEFE" opacity="1.000000" stroke="none" 
	d="
M326.970947,174.998871 
	C330.445129,174.998871 333.424683,174.998871 336.694672,174.998871 
	C336.694672,225.588257 336.694672,275.966492 336.694672,326.591370 
	C325.664276,326.591370 314.726807,326.591370 303.393433,326.591370 
	C303.393433,276.342621 303.393433,225.969101 303.393433,174.998871 
	C310.950806,174.998871 318.713593,174.998871 326.970947,174.998871 
z"/>
</svg>